<svg xmlns="http://www.w3.org/2000/svg" viewBox="0 0 258 208.67"><defs><style>.cls-1{isolation:isolate;}.cls-2{fill:#4c8;}.cls-3{fill:#46cccc;}.cls-18,.cls-3,.cls-32,.cls-4{opacity:0.4;}.cls-4{fill:#48cc90;}.cls-5{fill:#5439f7;}.cls-13,.cls-14,.cls-6{fill:#7bcaff;}.cls-25,.cls-26,.cls-6{opacity:0.5;}.cls-7{fill:#d3d3d3;}.cls-8{fill:#f2f2f2;}.cls-9{fill:#f9f4ea;}.cls-10{fill:#bbceff;}.cls-11{fill:#f6f3ff;}.cls-12,.cls-14,.cls-21{opacity:0.6;}.cls-15{fill:#edf4fc;}.cls-16{fill:#ffc550;}.cls-17{fill:#a6edc8;}.cls-18,.cls-23{fill:#375e82;}.cls-18,.cls-25,.cls-26,.cls-32{mix-blend-mode:multiply;}.cls-19{fill:#38464c;}.cls-20{fill:#676772;}.cls-21{fill:#bde5f2;}.cls-22{fill:#e3fbff;opacity:0.3;}.cls-24{fill:#d1d9fe;}.cls-25{fill:#abb2b7;}.cls-26{fill:#cad3db;}.cls-27{fill:#fff;}.cls-28{fill:#32a066;}.cls-29{fill:#72edad;}.cls-30{fill:#ffe1ab;}.cls-31{fill:#2aa866;}.cls-33{fill:#e2e2e2;}.cls-34{fill:#d6ddea;}.cls-35{fill:#31af6d;}.cls-36{fill:#40f;}.cls-37{fill:#ffaf84;}.cls-38{fill:#2e2947;}.cls-39{fill:#ed8c62;}.cls-40{fill:#454068;}.cls-41{fill:#370bd8;}.cls-42{fill:#332f4f;}.cls-43{fill:#35b773;}</style></defs><title>bg</title><g class="cls-1"><g id="Objects"><path class="cls-2" d="M72,60.33,68.4,56.7l1.35-1.57a11.81,11.81,0,0,1-1.34-3.23l-2.06-.15V46.62l2.06-.16a11.94,11.94,0,0,1,1.34-3.23L68.4,41.66,72,38l1.57,1.35a11.34,11.34,0,0,1,3.23-1.34L77,36h5.13l.16,2.07a11.34,11.34,0,0,1,3.23,1.34L87.07,38l3.62,3.62-1.35,1.57a11.34,11.34,0,0,1,1.34,3.23l2.07.16v5.13l-2.07.15a11.22,11.22,0,0,1-1.34,3.23l1.35,1.57-3.62,3.63L85.5,59a11.94,11.94,0,0,1-3.23,1.34l-.16,2.06H77l-.15-2.06A11.81,11.81,0,0,1,73.6,59Zm9.77-7.27a4.72,4.72,0,0,0,.93-.7,4.55,4.55,0,0,0,.7-5.43A4.17,4.17,0,0,0,81.8,45.3a4.55,4.55,0,0,0-5.43.7,4.72,4.72,0,0,0-.7.93,4.49,4.49,0,0,0,6.13,6.13Z"/><path class="cls-3" d="M55,45.91l-1.08-2.49,1-.5a6,6,0,0,1,0-1.85l-1-.47,1-2.52,1,.33a6,6,0,0,1,1.28-1.33l-.36-1L59.32,35l.5,1a5.75,5.75,0,0,1,1.85,0l.47-1,2.52,1-.33,1a6,6,0,0,1,1.32,1.29l1-.36,1.07,2.49-1,.5a5.69,5.69,0,0,1,0,1.84l1,.48-1,2.52-1-.33a6,6,0,0,1-1.29,1.32l.36,1-2.49,1.08-.5-1a6,6,0,0,1-1.85,0l-.47,1-2.52-1,.33-1A5.72,5.72,0,0,1,56,45.55Zm6.19-1.67a2.67,2.67,0,0,0,.6-.16,2.51,2.51,0,0,0,.52-.32,2.36,2.36,0,0,0,.88-2.2A2.7,2.7,0,0,0,63,41a2.14,2.14,0,0,0-.32-.52,2.36,2.36,0,0,0-2.2-.88,2.48,2.48,0,0,0-.59.17,2,2,0,0,0-.53.32,2.34,2.34,0,0,0-.87,2.2,2.46,2.46,0,0,0,.16.59,2.38,2.38,0,0,0,2.52,1.4Z"/><path class="cls-4" d="M139.66,32.49a1.67,1.67,0,1,1,1.66-1.66A1.66,1.66,0,0,1,139.66,32.49Z"/><path class="cls-3" d="M25.33,115.34a2.6,2.6,0,1,1,2.59-2.6A2.61,2.61,0,0,1,25.33,115.34Zm0-4.2a1.6,1.6,0,1,0,1.59,1.6A1.6,1.6,0,0,0,25.33,111.14Z"/><path class="cls-3" d="M134.74,36.7v-1h.94a.77.77,0,1,0,0-1.54h-.94v-.94a.77.77,0,1,0-1.54,0v.94h-.95a.77.77,0,0,0,0,1.54h.95v1a.77.77,0,0,0,1.54,0Z"/><path class="cls-4" d="M22.4,106.07a.83.83,0,1,1,0-1.66.83.83,0,1,1,0,1.66Z"/><path class="cls-5" d="M218.87,156.64a5.65,5.65,0,0,1-5.31,6l-59.63,3.47-5.45.32-3.66.21-5.53.32-8.75.51-7.24.42-3.08.18-7.22.42-57.2,3.33a5.63,5.63,0,0,1-6-5.3L43.77,62.1l169-9.85Z"/><path class="cls-6" d="M199.14,152.08,50.35,166.88a9.66,9.66,0,0,1-10.57-8.66L31.87,78.75a9.66,9.66,0,0,1,8.66-10.57L189.32,53.37A9.68,9.68,0,0,1,199.9,62l7.9,79.46A9.67,9.67,0,0,1,199.14,152.08Z"/><rect class="cls-6" x="63.14" y="71.79" width="79.95" height="87.94" rx="4.93"/><path class="cls-7" d="M212.78,52.26l-169,9.85L43,48.56a2.33,2.33,0,0,1,2.19-2.46l164.38-9.58A2.33,2.33,0,0,1,212,38.71Z"/><rect class="cls-8" x="46.4" y="48.62" width="163.05" height="5.25" transform="translate(-2.76 7.53) rotate(-3.33)"/><rect class="cls-9" x="46.2" y="48.79" width="2.73" height="2.73" transform="translate(-2.83 2.85) rotate(-3.33)"/><rect class="cls-9" x="51.04" y="48.51" width="2.73" height="2.73" transform="translate(-2.82 3.14) rotate(-3.34)"/><rect class="cls-9" x="55.88" y="48.23" width="2.73" height="2.73" transform="translate(-2.79 3.42) rotate(-3.34)"/><path class="cls-10" d="M59.71,94.63a2.28,2.28,0,0,1-2.27-2.14l-.7-12a2.28,2.28,0,0,1,.57-1.64,2.25,2.25,0,0,1,1.57-.76L129.56,74A2.3,2.3,0,0,1,132,76.15l.69,11.95a2.27,2.27,0,0,1-2.14,2.41L59.84,94.63Zm70-19.52h-.06L59,79.23a1.16,1.16,0,0,0-1.1,1.24l.7,12a1.16,1.16,0,0,0,1.23,1.1l70.68-4.12a1.12,1.12,0,0,0,.8-.39,1.18,1.18,0,0,0,.3-.84l-.7-12A1.17,1.17,0,0,0,129.69,75.11Z"/><path class="cls-10" d="M60.89,114.93a2.28,2.28,0,0,1-2.27-2.14l-.7-12a2.28,2.28,0,0,1,2.15-2.4l70.67-4.12a2.29,2.29,0,0,1,2.41,2.14l.7,12a2.28,2.28,0,0,1-2.14,2.4L61,114.93Zm70-19.51h-.07L60.13,99.53a1.18,1.18,0,0,0-1.1,1.24l.7,12a1.16,1.16,0,0,0,1.23,1.1l70.68-4.12a1.16,1.16,0,0,0,1.1-1.23l-.7-12A1.16,1.16,0,0,0,130.88,95.42Z"/><path class="cls-11" d="M127.3,108.75l-70.79-1.16a1.71,1.71,0,0,1-1.69-1.75l.19-12a1.74,1.74,0,0,1,1.75-1.7l70.79,1.16a1.73,1.73,0,0,1,1.7,1.75l-.2,12A1.73,1.73,0,0,1,127.3,108.75Z"/><path class="cls-10" d="M62.07,135.23a2.27,2.27,0,0,1-2.27-2.14l-.69-12a2.27,2.27,0,0,1,2.14-2.4l70.68-4.12a2.29,2.29,0,0,1,2.4,2.14l.7,12a2.28,2.28,0,0,1-2.14,2.4l-70.68,4.12Zm70-19.51H132l-70.68,4.12a1.13,1.13,0,0,0-.8.38,1.22,1.22,0,0,0-.3.85l.7,12a1.18,1.18,0,0,0,1.24,1.1L132.82,130a1.17,1.17,0,0,0,1.1-1.24l-.69-12A1.18,1.18,0,0,0,132.06,115.72Z"/><path class="cls-3" d="M227.57,127.13l-66.43-3.77a3.59,3.59,0,0,1-3.38-3.79l5-87.34a3.59,3.59,0,0,1,3.79-3.38l66.43,3.78a3.58,3.58,0,0,1,3.38,3.79l-5,87.33A3.58,3.58,0,0,1,227.57,127.13Z"/><path class="cls-10" d="M63.26,155.53a2.27,2.27,0,0,1-1.51-.57,2.23,2.23,0,0,1-.76-1.57l-.7-12a2.27,2.27,0,0,1,2.14-2.4l70.68-4.12a2.26,2.26,0,0,1,1.65.57,2.31,2.31,0,0,1,.76,1.57l.69,12a2.28,2.28,0,0,1-2.14,2.4l-70.68,4.12Zm70-19.51h-.07L62.5,140.14a1.1,1.1,0,0,0-.81.39,1.13,1.13,0,0,0-.29.84l.69,11.95a1.17,1.17,0,0,0,1.24,1.1L134,150.31a1.17,1.17,0,0,0,1.09-1.24l-.69-11.95a1.2,1.2,0,0,0-.39-.81A1.18,1.18,0,0,0,133.24,136Z"/><g class="cls-12"><rect class="cls-13" x="72.74" y="81.01" width="1.75" height="29.84" transform="translate(-23.5 167.97) rotate(-89.07)"/><rect class="cls-13" x="72.68" y="84.12" width="1.75" height="29.84" transform="translate(-26.66 170.98) rotate(-89.07)"/><rect class="cls-13" x="64.33" y="95.4" width="1.75" height="13.23" transform="matrix(0.02, -1, 1, 0.02, -37.86, 165.55)"/></g><rect class="cls-14" x="106.42" y="95.65" width="8.07" height="8.07" transform="matrix(0.02, -1, 1, 0.02, 8.98, 208.5)"/><rect class="cls-14" x="115.8" y="95.8" width="8.07" height="8.07" transform="translate(18.06 218.03) rotate(-89.07)"/><rect class="cls-2" x="189.42" y="120.74" width="45.27" height="1.12" transform="translate(89 332.34) rotate(-89.52)"/><rect class="cls-15" x="154.92" y="135.34" width="15.24" height="1.12" transform="translate(25.29 297.31) rotate(-89.52)"/><rect class="cls-15" x="171.35" y="127.21" width="31.92" height="1.12" transform="translate(57.97 314.01) rotate(-89.52)"/><path class="cls-16" d="M212.05,133.32H212c-6.64,0-9.83-7.35-12.92-14.42s-6-13.63-11.81-13.68h-.07c-5.8,0-8.8,6.55-12,13.49s-6.5,14.19-13.09,14.19H162v-1.21h.06c5.81,0,8.8-6.56,12-13.49s6.49-14.2,13.08-14.2h.08c6.63,0,9.83,7.36,12.92,14.42s6,13.63,11.81,13.68H212c5.81,0,8.81-6.55,12-13.49s6.5-14.2,13.09-14.2h.07v1.21h-.06c-5.81,0-8.8,6.56-12,13.49S218.63,133.32,212.05,133.32Z"/><rect class="cls-17" x="199.44" y="90.26" width="4.87" height="9.75" transform="translate(95.46 291.3) rotate(-86.75)"/><rect class="cls-17" x="182.22" y="89.28" width="4.87" height="9.75" transform="translate(80.18 273.17) rotate(-86.75)"/><rect class="cls-17" x="164.99" y="88.3" width="4.87" height="9.75" transform="translate(64.91 255.05) rotate(-86.75)"/><rect class="cls-6" x="67.62" y="122.48" width="30.13" height="2.36" transform="translate(-7.05 5.02) rotate(-3.33)"/><rect class="cls-6" x="67.87" y="126.95" width="20.29" height="2.36" transform="translate(-7.32 4.76) rotate(-3.34)"/><rect class="cls-6" x="90.49" y="126.07" width="5.06" height="2.36" transform="translate(-7.23 5.62) rotate(-3.33)"/><rect class="cls-6" x="65.28" y="82.37" width="30.13" height="2.36" transform="translate(-4.72 4.81) rotate(-3.33)"/><rect class="cls-6" x="65.54" y="86.9" width="17.93" height="2.36" transform="translate(-5 4.48) rotate(-3.33)"/><rect class="cls-6" x="85.79" y="85.69" width="18.99" height="2.36" transform="translate(-4.89 5.69) rotate(-3.33)"/><rect class="cls-6" x="68.82" y="143.31" width="12.03" height="2.36" transform="translate(-8.27 4.59) rotate(-3.33)"/><rect class="cls-6" x="83.07" y="142.48" width="12.03" height="2.36" transform="translate(-8.2 5.42) rotate(-3.33)"/><rect class="cls-6" x="69.06" y="147.25" width="20.29" height="2.36" transform="translate(-8.5 4.86) rotate(-3.34)"/><rect class="cls-6" x="91.66" y="145.94" width="19.99" height="2.36" transform="translate(-8.38 6.16) rotate(-3.33)"/><path class="cls-18" d="M85.75,88.6A24.79,24.79,0,0,0,51.07,124l-2.3,2.58-.54-.46-.7.72.54,9.35,4.83-5.92-.54-.47,2.32-2.59A24.79,24.79,0,0,0,85.75,88.6Zm-2.87,30.64a18.23,18.23,0,1,1-1.5-25.71,18.2,18.2,0,0,1,1.5,25.71Z"/><rect class="cls-19" x="34.85" y="112.68" width="8.81" height="4.83" transform="translate(-72.82 67.9) rotate(-48.33)"/><path class="cls-20" d="M17.23,139.84h0a4.27,4.27,0,0,0,6.14-.49L40.1,118.84l-4.67-4.16L17,133.69A4.26,4.26,0,0,0,17.23,139.84Z"/><path class="cls-21" d="M35,97a21.5,21.5,0,0,0,35.91,14.67,21.2,21.2,0,0,0,3.3-3.77,21.81,21.81,0,0,0,1.56-2.66A21.23,21.23,0,0,0,78,96.18c0-.55,0-1.12,0-1.69A21.52,21.52,0,0,0,55.22,74.27c-.56,0-1.14.09-1.69.16a21.26,21.26,0,0,0-8.73,3.24,22.66,22.66,0,0,0-2.46,1.86A20.46,20.46,0,0,0,39,83.25,21.44,21.44,0,0,0,35,97Z"/><path class="cls-22" d="M44.8,77.67l31,27.57A21.23,21.23,0,0,0,78,96.18L53.53,74.43A21.26,21.26,0,0,0,44.8,77.67Z"/><path class="cls-22" d="M39,83.25l31.94,28.42a21.2,21.2,0,0,0,3.3-3.77L42.34,79.53A20.46,20.46,0,0,0,39,83.25Z"/><path class="cls-23" d="M56.46,120.53A24.79,24.79,0,1,1,75,112.22,24.71,24.71,0,0,1,56.46,120.53Zm0-43c-.36,0-.72,0-1.08,0a17.82,17.82,0,1,0,1.08,0Z"/><path class="cls-16" d="M193.14,85.94a24.47,24.47,0,0,0,33.91-15.62L215.31,67a12.28,12.28,0,0,1-17,7.84Z"/><path class="cls-15" d="M185.22,80.05l.55.59,8.82-8.41A12.28,12.28,0,1,1,214.78,59L226,54.18a24.48,24.48,0,1,0-40.79,25.87Z"/><path class="cls-2" d="M215.74,64.44a12.18,12.18,0,0,1-.43,2.6l11.74,3.28a24.38,24.38,0,0,0-1-16.14L214.78,59A12,12,0,0,1,215.74,64.44Z"/><path class="cls-24" d="M185.77,80.64a24.23,24.23,0,0,0,7.37,5.3l5.15-11.06a12.06,12.06,0,0,1-3.7-2.65Z"/><path class="cls-15" d="M168.47,46.83A4.29,4.29,0,0,1,173,48a4.25,4.25,0,0,1,1,2.19l-2.11.34a2.16,2.16,0,0,0-2.82-1.71Z"/><path class="cls-16" d="M167,47.7l.11-.1,1.37,1.65A2.16,2.16,0,1,0,171.71,52L173.58,53a4.31,4.31,0,0,1-7,.74A4.3,4.3,0,0,1,167,47.7Z"/><path class="cls-16" d="M172,51a2.33,2.33,0,0,0,0-.46l2.11-.34a4.36,4.36,0,0,1-.5,2.8L171.71,52A2.15,2.15,0,0,0,172,51Z"/><path class="cls-2" d="M167.08,47.6a4.14,4.14,0,0,1,1.39-.77l.68,2a2.1,2.1,0,0,0-.7.39Z"/><path class="cls-2" d="M172.2,78.83a4.3,4.3,0,0,1-6.37,1.56l1.26-1.74a2.14,2.14,0,0,0,2.7-.14,2.06,2.06,0,0,0,.5-.64Z"/><path class="cls-24" d="M172.65,77.15s0,.09,0,.14l-2.14-.19a2.08,2.08,0,0,0-.54-1.63,2.15,2.15,0,0,0-3.68,2l-2.07.57a4.3,4.3,0,1,1,8.44-.9Z"/><path class="cls-15" d="M166.74,78.34a2.51,2.51,0,0,0,.35.31l-1.26,1.74a4.31,4.31,0,0,1-1.62-2.34l2.07-.57A2.18,2.18,0,0,0,166.74,78.34Z"/><path class="cls-16" d="M172.64,77.29a4.22,4.22,0,0,1-.44,1.54l-1.91-1a2.11,2.11,0,0,0,.21-.77Z"/><path class="cls-24" d="M167.17,67.75a4.3,4.3,0,0,1-1.56-6.37l1.74,1.26a2.16,2.16,0,0,0,.13,2.7,2.22,2.22,0,0,0,.65.5Z"/><path class="cls-2" d="M168.85,68.2h-.14l.19-2.13a2.16,2.16,0,0,0,1.8-3.59,2.12,2.12,0,0,0-2.18-.64L168,59.76a4.3,4.3,0,1,1,.9,8.44Z"/><path class="cls-16" d="M167.66,62.29a2.51,2.51,0,0,0-.31.35l-1.74-1.26A4.31,4.31,0,0,1,168,59.76l.57,2.07A2.12,2.12,0,0,0,167.66,62.29Z"/><path class="cls-15" d="M168.71,68.19a4.22,4.22,0,0,1-1.54-.44l1-1.91a2.27,2.27,0,0,0,.77.22Z"/><path class="cls-25" d="M209.45,159.19,203.08,175a1.67,1.67,0,0,1-2.17.93l-21.61-8.73a1.68,1.68,0,0,1-.92-2.17l6.37-15.77a1.67,1.67,0,0,1,2.17-.92L208.53,157A1.67,1.67,0,0,1,209.45,159.19Z"/><path class="cls-26" d="M210.6,157.36l-5.52,16.08a1.67,1.67,0,0,1-2.12,1l-22-7.56a1.66,1.66,0,0,1-1-2.12l5.51-16.08a1.67,1.67,0,0,1,2.12-1l22,7.56A1.67,1.67,0,0,1,210.6,157.36Z"/><path class="cls-15" d="M212.27,154.88l-4.48,16.4a1.67,1.67,0,0,1-2,1.17l-22.47-6.14a1.66,1.66,0,0,1-1.17-2.05l4.48-16.4a1.66,1.66,0,0,1,2-1.17l22.48,6.14A1.67,1.67,0,0,1,212.27,154.88Z"/><path class="cls-2" d="M212.27,154.88l-1,3.64-25.7-7,1-3.64a1.66,1.66,0,0,1,2-1.17l22.48,6.14A1.67,1.67,0,0,1,212.27,154.88Z"/><rect class="cls-27" x="197.65" y="142.28" width="1.23" height="26.64" transform="translate(-4.07 305.87) rotate(-74.73)"/><path class="cls-28" d="M194.44,150.37a2,2,0,1,1-1.4-2.44A2,2,0,0,1,194.44,150.37Z"/><path class="cls-28" d="M208.07,154.1a2,2,0,1,1-1.4-2.45A2,2,0,0,1,208.07,154.1Z"/><path class="cls-16" d="M192.51,151.21a1.12,1.12,0,0,1-.36-.05,1.35,1.35,0,0,1-1-1.67l.77-2.85a1.37,1.37,0,0,1,2.64.72l-.78,2.85A1.38,1.38,0,0,1,192.51,151.21Z"/><path class="cls-16" d="M206.15,154.94a1.49,1.49,0,0,1-.36-.05,1.37,1.37,0,0,1-1-1.68l.78-2.85a1.36,1.36,0,0,1,2.63.72l-.78,2.85A1.35,1.35,0,0,1,206.15,154.94Z"/><rect class="cls-29" x="187.53" y="155.64" width="2.2" height="2.59" transform="translate(-12.45 297.56) rotate(-74.73)"/><rect class="cls-29" x="204.79" y="160.35" width="2.2" height="2.59" transform="translate(-4.29 317.67) rotate(-74.72)"/><rect class="cls-29" x="200.48" y="159.17" width="2.2" height="2.59" transform="translate(-6.32 312.66) rotate(-74.73)"/><rect class="cls-29" x="196.16" y="157.99" width="2.2" height="2.59" transform="translate(-8.36 307.63) rotate(-74.73)"/><rect class="cls-29" x="191.84" y="156.81" width="2.2" height="2.59" transform="translate(-10.4 302.6) rotate(-74.73)"/><rect class="cls-29" x="186.59" y="159.09" width="2.2" height="2.59" transform="translate(-16.47 299.2) rotate(-74.73)"/><rect class="cls-29" x="203.85" y="163.8" width="2.2" height="2.59" transform="translate(-8.3 319.32) rotate(-74.73)"/><rect class="cls-29" x="199.53" y="162.62" width="2.2" height="2.59" transform="translate(-10.34 314.29) rotate(-74.73)"/><rect class="cls-29" x="195.22" y="161.44" width="2.2" height="2.59" transform="translate(-12.4 309.24) rotate(-74.72)"/><rect class="cls-29" x="190.9" y="160.26" width="2.2" height="2.59" transform="translate(-14.43 304.23) rotate(-74.73)"/><rect class="cls-29" x="185.64" y="162.54" width="2.2" height="2.59" transform="translate(-20.5 300.81) rotate(-74.72)"/><rect class="cls-29" x="202.91" y="167.25" width="2.2" height="2.59" transform="translate(-12.32 320.96) rotate(-74.73)"/><rect class="cls-29" x="198.59" y="166.07" width="2.2" height="2.59" transform="translate(-14.38 315.9) rotate(-74.72)"/><rect class="cls-29" x="194.28" y="164.89" width="2.2" height="2.59" transform="translate(-16.4 310.89) rotate(-74.73)"/><rect class="cls-29" x="189.96" y="163.71" width="2.2" height="2.59" transform="translate(-18.45 305.86) rotate(-74.73)"/><path class="cls-16" d="M32.38,149.17l2,10.52A1.59,1.59,0,0,0,36.29,161l22-4.27a1.58,1.58,0,0,0,1.26-1.87l-2-10.51A1.6,1.6,0,0,0,55.58,143l-21.94,4.26A1.6,1.6,0,0,0,32.38,149.17Z"/><path class="cls-30" d="M32.38,149.16l.11.57,12,4.63a3.57,3.57,0,0,0,3.75-.73l9.36-8.77-.11-.56A1.61,1.61,0,0,0,55.57,143l-21.93,4.26A1.59,1.59,0,0,0,32.38,149.16Z"/><path class="cls-2" d="M31.46,161.45a4,4,0,1,0,3.16-4.68A4,4,0,0,0,31.46,161.45Z"/><path class="cls-2" d="M88.59,177.73l-6.53,6.53-6.53-6.53a9.23,9.23,0,1,1,13.06,0Z"/><path class="cls-31" d="M84.3,173.44a3.16,3.16,0,1,1,0-4.47A3.16,3.16,0,0,1,84.3,173.44Z"/><g class="cls-32"><path class="cls-23" d="M139.57,100.22a8.2,8.2,0,0,0-.95-3.18c-1.8-3.89-5.76-9.58-8.39-13.18a1.8,1.8,0,0,0-.26-.29,1.77,1.77,0,0,0-1.57-.94h-4.61a18.84,18.84,0,0,0,.14-3.53,8,8,0,0,0,3.37-3.39,1.09,1.09,0,0,0,1.06-.2,2.9,2.9,0,0,0,1-2.22,2.94,2.94,0,0,0-.46-1.56,7.9,7.9,0,0,0,.29-1.53c.14-1.79,0-3.77-2.27-4.66.9-1.41-2.6-4.37-5.53-3.36-6.73,2.33-6.77-.22-6.77-.22-2.91.85-3.19,3.53-1.9,4.71a5.07,5.07,0,0,0-.7,3.53c0,.25.07.55.13.87a9.07,9.07,0,0,0-.06.91,8.05,8.05,0,0,0,6.76,7.94,10.45,10.45,0,0,1-.24,2.71h-5.16a1.78,1.78,0,0,0-1.4.68,2.13,2.13,0,0,0-.51.44c-2.81,3.36-9.4,11.51-9.93,14.41-.4,2.16,2.18,7.84,4.7,12.73a2.84,2.84,0,0,1-.72.43,2.14,2.14,0,1,0,1.4,4.05,7.21,7.21,0,0,0,2.08-1.2c-.09,1.88-.14,3-.14,3s-.25,5.74.15,11.55c.09,2.26.84,19.71,1.85,26.39.45,3,1.26,8.25,2,13.3l7.22-.42c-.81-5.24-1.67-10.86-2.14-14-.89-5.88-1.6-21.62-1.75-25.13h3.18c.12,2.92.86,19.69,1.84,26.21.43,2.85,1.2,7.83,2,12.7l7.24-.42c-.79-5.06-1.61-10.38-2.06-13.36-1-6.6-1.78-25.64-1.79-25.83a2.47,2.47,0,0,0,0-.38,21.47,21.47,0,0,0,.35-10.65c-.06-.78-.08-1.68-.07-2.68a7.13,7.13,0,0,0,2,1.15,1.91,1.91,0,0,0,.7.12,2.14,2.14,0,0,0,.7-4.16l-.08,0c1.2-1.11,2.24-2.11,3.15-3C139.5,102.54,139.55,100.86,139.57,100.22Zm-30.13,7.29c-1.84-3.73-3.47-7.5-3.57-8.64.32-1,2.31-3.88,4.74-7.06C110.12,96.67,109.73,102.6,109.44,107.51Zm17.74,1.08c.44-6,1.34-13.17,2.14-18.59,3,4.33,5.62,8.64,5.94,10C134.58,101.31,130.88,105.15,127.18,108.59Z"/><path class="cls-23" d="M161.05,122.69a9.51,9.51,0,0,1-1.17-.57c1.57-2.42,4.39-7.77,3.62-14-.55-4.39-7.38-12.1-8.16-13a1.61,1.61,0,0,0-1.2-.52,2,2,0,0,0-.6-.1h-5.68a19.32,19.32,0,0,1,.07-2.19,8.16,8.16,0,0,0,7.87-8.15s2.31-6.37-6-9.32c-.31-.11-.61-.19-.92-.27a4.71,4.71,0,0,0-1.4-2c-3.17-2.88-9.23-1.18-10.48,3.08-1.17,4,.33,5.47,1.75,8.21a2.61,2.61,0,0,0,.31,3.67,1,1,0,0,0,.24.14,14.22,14.22,0,0,1-1.83,4.46,13.38,13.38,0,0,0,5.11-1.59,7.89,7.89,0,0,0,2.2,1.22,20.47,20.47,0,0,0-.11,2.69h-3.42a1.79,1.79,0,0,0-1.21.47l-.13.13-.07.08-.07.09c-.15.21-.59.85-1.18,1.75-1.74,2.67-4.75,7.68-5.15,10.89q0,.33-.06.66c-.41,6.13,4.08,11.33,6.59,13.74a7.25,7.25,0,0,1-.79.36,1.58,1.58,0,0,0,.58,3,1.49,1.49,0,0,0,.58-.11l.52-.22c-1.76,8.64,1.1,22,1.1,22h.29c-.16,3-.36,5.7-.63,7.5-.41,2.69-1.36,7.36-2.36,12l5.53-.32c.89-4.26,1.71-8.39,2.1-10.93.31-2,.53-5,.69-8.29H151c-.22,3-.48,5.69-.75,7.5-.39,2.63-1.07,7-1.77,11.51l5.45-.32c.63-4.09,1.22-8,1.59-10.4.3-2,.59-5,.83-8.29h.5c.54-2.33,1-15.82,1.16-22.68a13.89,13.89,0,0,0,1.89.93,1.46,1.46,0,0,0,.58.11,1.58,1.58,0,0,0,.57-3Zm-18.33-2.16c-2-1.8-6.79-6.78-6.12-12.21.25-1.95,2-5.24,3.62-7.88C141.51,107,143.13,114.43,142.72,120.53Zm13.56-19.27c2,2.67,3.88,5.59,4.08,7.23A17.94,17.94,0,0,1,158,119.06C157.78,115.64,157.17,107.46,156.28,101.26Z"/></g><path class="cls-33" d="M96.69,195.39h66.77a1.56,1.56,0,0,0,1.56-1.57h0a1.57,1.57,0,0,0-1.56-1.57H96.69a1.57,1.57,0,0,0-1.57,1.57h0A1.57,1.57,0,0,0,96.69,195.39Z"/><polygon class="cls-34" points="125.73 189.27 124.88 182.66 121.78 182.19 123.27 189.11 125.73 189.27"/><path class="cls-2" d="M122.68,188.22a1.22,1.22,0,0,0-.55.23,10.65,10.65,0,0,1-4.19,2.55c-1.74.46-1,1.29.66,1.29,2.5,0,3.5-.1,4.62-.07s.39.07,3.13.07c1.26,0,.85-2.46.18-3.93a.87.87,0,0,0-1-.53Z"/><polygon class="cls-34" points="112.45 189.27 111.6 182.66 108.49 182.19 109.99 189.11 112.45 189.27"/><path class="cls-2" d="M109.39,188.22a1.14,1.14,0,0,0-.54.23,17.14,17.14,0,0,1-6,2.7c-1.78.26-1.87,1.14.64,1.14s4.33-.22,5.45-.19a32.52,32.52,0,0,0,3.57.19c2.11,0,1.45-2.69.69-3.93a.91.91,0,0,0-1-.53Z"/><path class="cls-35" d="M108.93,57.83c1.85-.33,5.3,3.41,1,8.94-3.07,3.94-4.7-1.11-4.88-3.32S105.11,58.52,108.93,57.83Z"/><path class="cls-36" d="M107.9,78.42a2.41,2.41,0,0,0-3.4.3c-3.16,3.8-10.59,13-11.19,16.25-.49,2.69,3.44,10,6.81,15.7l3-1.82c-3.88-5.58-4.07-10.7-5-13.08.56-1.79,5.93-7.64,10.41-13C109.36,81.73,108.93,79.27,107.9,78.42Z"/><path class="cls-37" d="M98.33,114.82a3.22,3.22,0,0,1-2.14-1.94c-1.12-2.76.63-2,1.89-2.44.63-.22,1.53-1.67,1.88-2.08a2.14,2.14,0,0,1,3.17-.35c1,.86.79,2.17.27,3.4a5.81,5.81,0,0,1-2.73,3.2A2.59,2.59,0,0,1,98.33,114.82Z"/><path class="cls-37" d="M118.48,74.75a12.6,12.6,0,0,1-1.43,6.44c-1.47,2.32-1.76,2.8-1.79,2.85a2.85,2.85,0,0,1-4.9-2.93s.23-.39,1.86-3a5.39,5.39,0,0,0,.5-2.22,19.14,19.14,0,0,0-.14-3.85,2.85,2.85,0,0,1,5.64-.84A23.4,23.4,0,0,1,118.48,74.75Z"/><path class="cls-36" d="M125.46,79.82c-1.41,8.1-4.17,28.44-3.57,36.62H101.57S102.79,86.3,104.72,79a2,2,0,0,1,1.94-1.49h16.82A2,2,0,0,1,125.46,79.82Z"/><path class="cls-38" d="M121,129.67s2.48-4.54.89-13.23H101.57s-.29,6.62.17,13.23Z"/><path class="cls-38" d="M123.25,158c-1.13-7.45-.81-29.57-1.27-32.11-.4-2.21-3.83-2.1-6.06-2s-4.34,3.06-4.25,5.3c0,.9,2.67,22.13,3.86,30,.86,5.69,4.62,20.6,6,27.25l5.15-.58C125.65,179.21,124.11,163.72,123.25,158Z"/><path class="cls-38" d="M111.85,158c-.61-7.63-.88-29.2-.89-29.42-.09-2.24-3.12-3.67-5.35-3.6a4.06,4.06,0,0,0-3.89,4.22c0,.9.91,22.13,2.1,30,.85,5.69,2.93,21.1,4.55,27.79l4.63-.58C112,179.75,112.31,163.72,111.85,158Z"/><path class="cls-36" d="M125.54,78.85a2.41,2.41,0,0,0-3.37-.53,3.27,3.27,0,0,0-.63,4c4.34,5.94,8.84,12.94,9.31,14.87-4.31,3.47-2.27,5.78-10.57,11.43l2.14,2.72c11.77-9.9,13.62-13.19,13.65-14C136.16,93.92,129.51,84.29,125.54,78.85Z"/><path class="cls-39" d="M118.48,74.75a9,9,0,0,1-4.6,1.25,7.45,7.45,0,0,1-1.16-.08,19.14,19.14,0,0,0-.14-3.85,2.85,2.85,0,0,1,5.64-.84A23.4,23.4,0,0,1,118.48,74.75Z"/><path class="cls-37" d="M105.51,65.6c0,5,3.69,9.3,8.7,9.3,4.27,0,9.07-4.43,9.07-9.44a9.08,9.08,0,0,0-9.07-9.08C109.2,56.38,105.51,60.59,105.51,65.6Z"/><path class="cls-37" d="M124.53,114.76a3.4,3.4,0,0,1-2-.69,8.43,8.43,0,0,1-2.64-2.36,2.45,2.45,0,0,1,3.8-3.08c.42.49,1.14,1.59,1.75,1.77,1.93.54,2.71,1.09,2,2.21C126.86,113.58,125.5,114.75,124.53,114.76Z"/><path class="cls-2" d="M120.53,57.83c-1.85-.33-5.66,4-.38,8.59,2.9,2.53,4.07-.76,4.25-3S124.34,58.52,120.53,57.83Z"/><path class="cls-2" d="M115.61,54.42c3.52-1.22,7.76,2.65,6,4.07-.79.63-.75.53-2.75,1.12s-10.38,1.25-12.44.25-2.07-4.63,1.58-5.69C108,54.17,108,57,115.61,54.42Z"/><path class="cls-37" d="M124.6,66.93a3.25,3.25,0,0,1-1.17,2.51,1.3,1.3,0,0,1-2.12-1v-3a1.3,1.3,0,0,1,2.12-1A3.25,3.25,0,0,1,124.6,66.93Z"/><path class="cls-15" d="M117.6,89.57l-4.5-5a.89.89,0,0,0-1.26-.06l-5.55,5h2.35L108.22,94a.89.89,0,0,0,.89,1h4.81a.89.89,0,0,0,.89-.8l.45-4.56Z"/><path class="cls-37" d="M110.35,77.46c-.47,1.64,1.08,2.61,3.79,2.23a13.22,13.22,0,0,0,5.49-2.23Z"/><path class="cls-40" d="M124.59,187c0-.23-3.58-22.82-4.12-30.09-.57-7.65-1.62-27-1.62-30v-10.9h.5V127c0,3,1,22.31,1.62,30,.54,7.26,4.07,29.82,4.11,30.05Z"/><rect class="cls-40" x="111.06" y="116.06" width="0.5" height="13.74"/><path class="cls-40" d="M111.31,126.91a2.5,2.5,0,0,1-2.5-2.5v-8.35h.5v8.35a2,2,0,0,0,2,2Z"/><path class="cls-41" d="M152.79,66.2C149.21,63,142.38,64.88,141,69.68s.59,6.36,2.28,9.85-1.75,8.72-1.75,8.72,10.55-.72,10.54-10C152,72.42,157.14,70.16,152.79,66.2Z"/><path class="cls-37" d="M155.15,99.79a1.8,1.8,0,0,1-.91.26,1.77,1.77,0,0,1-1.53-.87s-.3-.49-1.83-2.91c-1.24-2-1.35-5.08-1.24-7.17a21.48,21.48,0,0,1,.21-2.17,1.78,1.78,0,0,1,3.52.52,18.68,18.68,0,0,0-.19,2.46,9.1,9.1,0,0,0,.72,4.46l1.87,3A1.79,1.79,0,0,1,155.15,99.79Z"/><path class="cls-37" d="M154.38,129.45c0,.71-.32,13.55-.9,23.12,0,.1,0,.2,0,.3-.18,2.69-.52,5.3-.79,7-1.19,7.89-6.86,29.16-7.07,30.07l-2.14-.17c.06-.22.24-21.64,2.72-30.91a34.36,34.36,0,0,0,.56-5.85c0-.11,0-.22,0-.33.59-9.45.64-23.19.65-23.36a3,3,0,0,1,3-3h0C152.08,126.37,154.38,127.8,154.38,129.45Z"/><path class="cls-37" d="M163.93,129.49c0,.7-.56,13.62-1.35,23.14a.28.28,0,0,0,0,.09c-.23,2.79-.48,5.28-.75,7.08-.92,6.09-5.61,23.62-6.59,29.92l-2.18-.46c0-18,1.66-25.43,2.72-29.69.37-1.48.21-4.35.14-6.76a1.93,1.93,0,0,1,0-.24c-.28-10,.16-17.92.1-22.77.07-1.66,3.36-3.46,5.05-3.43A3,3,0,0,1,163.93,129.49Z"/><path class="cls-39" d="M153.37,87.45a18.68,18.68,0,0,0-.19,2.46,8.91,8.91,0,0,1-3.54-.81,21.48,21.48,0,0,1,.21-2.17,1.78,1.78,0,0,1,3.52.52Z"/><path class="cls-37" d="M161.73,79.22c-.81,5.07-3.45,9.92-8.53,9.92s-8.85-4.52-8.85-9.6S147.84,70,152.93,70,162.53,74.2,161.73,79.22Z"/><path class="cls-37" d="M168.29,122.73c-.88-.27-1.58.25-2.64-1.06,3.27-5.48,6-8.45,5.15-15.49-.61-5-8.31-13.64-9.19-14.61A1.78,1.78,0,0,0,159,94c3,3.36,7.95,9.77,8.31,12.66,1,7.9-4.36,14.62-4.42,14.68l-.07.11-.1.15a.77.77,0,0,0-.07.16l-.07.16a1,1,0,0,1,0,.17l0,.17a.91.91,0,0,0,0,.17v.17l0,.16,0,.18.06.15.06.17.09.14a1.3,1.3,0,0,0,.1.15.69.69,0,0,0,.11.13l.09.1.07.06h0a9.6,9.6,0,0,0,2.85,1.8,1.82,1.82,0,0,0,.65.12,3,3,0,0,0,2.32-1.32C169.3,123.48,169.23,123,168.29,122.73Z"/><path class="cls-39" d="M154.38,129.45c0,.71-.32,13.55-.9,23.12,0,.1,0,.2,0,.3l-6.72.18c0-.11,0-.22,0-.33.59-9.45.64-23.19.65-23.36a3,3,0,0,1,3-3h0C152.08,126.37,154.38,127.8,154.38,129.45Z"/><path class="cls-39" d="M163.93,129.49c0,.7-.56,13.62-1.35,23.14l-6.67.18a1.93,1.93,0,0,1,0-.24c-.28-10,.16-17.92.1-22.77.07-1.66,3.36-3.46,5.05-3.43A3,3,0,0,1,163.93,129.49Z"/><path class="cls-2" d="M146.56,150.46s-4.75-22.14.82-30.1h17.36s-.6,26.54-1.43,30.1Z"/><path class="cls-38" d="M164.67,119.37c.05.64.07,1,.07,1H147.38l.06-1c0-.1,0-.2,0-.3,0-1.21,0-2.46-.07-3.74,0-.13,0-.26,0-.4,0-.47-.06-1-.11-1.43,0-.14,0-.27,0-.41-.12-1.19-.27-2.4-.45-3.62,0-.11,0-.22,0-.33-.07-.5-.15-1-.23-1.5a2.38,2.38,0,0,0,0-.26c-.2-1.26-.43-2.53-.67-3.78a0,0,0,0,0,0,0c-.11-.56-.21-1.13-.32-1.69,0,0,0-.07,0-.11-.24-1.2-.47-2.39-.71-3.54,0-.17-.07-.33-.1-.49-.07-.38-.15-.76-.22-1.13s-.09-.47-.13-.7c-.18-.91-.34-1.79-.49-2.65a1.1,1.1,0,0,1,0-.18,2,2,0,0,1,.27-1.21,2,2,0,0,1,1.76-1h13.81a2,2,0,0,1,1.75,1,1.79,1.79,0,0,1,.22.51c.06.25.13.51.18.78.16.68.32,1.45.47,2.28a3.79,3.79,0,0,1,1,.47,4.13,4.13,0,0,1,.91.81,3.67,3.67,0,0,1,.62,1,3.48,3.48,0,0,1,.21.62,4.17,4.17,0,0,1,.11.94,4,4,0,0,1-.84,2.47.53.53,0,0,1-.12.14,3.68,3.68,0,0,1-.84.78c0,.28.07.57.09.86a.09.09,0,0,1,0,0c.14,1.23.27,2.48.39,3.71l0,.33c0,.48.09,1,.13,1.41,0,.14,0,.28,0,.42.1,1.21.21,2.38.29,3.48,0,.19,0,.37.05.55,0,.44.07.86.09,1.26,0,.19,0,.38,0,.57.11,1.42.19,2.61.24,3.48C164.65,119,164.66,119.2,164.67,119.37Z"/><path class="cls-42" d="M164.63,118.8q-8.59-.17-17.18.26c0-1.21,0-2.46-.07-3.74,0-.13,0-.26,0-.4q8.49-.39,17-.17c0,.19,0,.38,0,.57C164.5,116.74,164.58,117.93,164.63,118.8Z"/><path class="cls-42" d="M164.2,112.94q-8.5-.22-17,.14c-.12-1.19-.27-2.4-.45-3.62,0-.11,0-.22,0-.33,5.71-.23,11.44-.26,17.16-.09,0,.14,0,.28,0,.42C164,110.67,164.12,111.84,164.2,112.94Z"/><path class="cls-42" d="M163.71,107.3q-8.64-.27-17.28.07c-.2-1.26-.43-2.53-.67-3.78a0,0,0,0,0,0,0q8.77-.32,17.56,0a.09.09,0,0,1,0,0C163.46,104.82,163.59,106.07,163.71,107.3Z"/><path class="cls-42" d="M165,99.29a4,4,0,0,1-.84,2.47.53.53,0,0,1-.12.14q-9.31-.36-18.63,0s0-.07,0-.11c-.24-1.2-.47-2.39-.71-3.54q10.1-.33,20.21.13A4.17,4.17,0,0,1,165,99.29Z"/><path class="cls-42" d="M164.08,96.71q-9.84-.43-19.7-.11c0-.23-.09-.47-.13-.7-.18-.91-.34-1.79-.49-2.65a1.1,1.1,0,0,1,0-.18q9-.28,18,.08c.16.68.32,1.45.47,2.28a3.79,3.79,0,0,1,1,.47A4.13,4.13,0,0,1,164.08,96.71Z"/><path class="cls-37" d="M148.85,123.19a2.09,2.09,0,0,0,.08-.23l0-.1a1.66,1.66,0,0,0,0-.22.5.5,0,0,0,0-.12.89.89,0,0,0,0-.23v-.11a1.89,1.89,0,0,0,0-.23l0-.1a1.08,1.08,0,0,0-.08-.19l-.06-.13-.1-.14s-.07-.11-.11-.15l0,0-.12-.11-.1-.1c-.09-.07-8-6.83-7.85-14.58.06-3.39,4.84-10.27,6.51-12.65a1.78,1.78,0,1,0-2.91-2c-.67.94-6.53,9.41-7.13,14.25-.9,7.22,6.25,13,9.19,15.84-1.19,1.13-2,.69-2.72.8-1,.14-1,.85-.83,1.81a3,3,0,0,0,.61,1.34,1.38,1.38,0,0,0,1.75.28,15.84,15.84,0,0,0,3.39-2.25h0a.27.27,0,0,0,.08-.07,1.45,1.45,0,0,0,.17-.18l0,0v0a1.64,1.64,0,0,0,.14-.22A.35.35,0,0,1,148.85,123.19Z"/><path class="cls-36" d="M148.16,75c3.7,2.12,12.39,1.56,14,4.26,0,0,2.6-7.18-6.73-10.51C146.84,65.65,143,72,148.16,75Z"/><path class="cls-36" d="M148.66,71.12c2.41.86-1,8.69-4.92,8.69C142.08,79.81,141.87,68.71,148.66,71.12Z"/><path class="cls-37" d="M142.77,80.82a2.93,2.93,0,0,0,1,2.25,1.17,1.17,0,0,0,1.9-.92V79.49a1.17,1.17,0,0,0-1.9-.92A2.93,2.93,0,0,0,142.77,80.82Z"/><polygon class="cls-43" points="149.25 148.29 148.81 148.05 161.73 124.62 162.17 124.86 149.25 148.29"/><polygon class="cls-43" points="155.72 148.25 155.25 148.09 162.22 127.69 162.69 127.86 155.72 148.25"/><path class="cls-27" d="M147.72,90.87l.14.19a8.22,8.22,0,0,0,1.71,1.73A7.87,7.87,0,0,0,154,94.52a2.55,2.55,0,0,0,1.81-.61c.7-.69.69-1.81,0-3Z"/><path class="cls-37" d="M148.35,90.87a7.86,7.86,0,0,0,1.55,1.56c2,1.54,4.46,2,5.44,1.07.61-.59.52-1.59-.13-2.63Z"/><path class="cls-42" d="M145.76,189.34a.75.75,0,0,1,.4.17,7.68,7.68,0,0,0,3,1.84c1.26.34.76.94-.48.94-1.81,0-2.54-.07-3.35,0s-.28,0-2.28,0c-.91,0-.61-1.78-.12-2.85a.63.63,0,0,1,.72-.39Z"/><path class="cls-42" d="M155.34,189.34a.72.72,0,0,1,.39.17,12.64,12.64,0,0,0,4.33,2c1.29.18,1.35.82-.46.82s-3.15-.16-4-.14a23.72,23.72,0,0,1-2.59.14c-1.53,0-1.05-1.95-.51-2.85a.68.68,0,0,1,.73-.39Z"/></g></g></svg>