<svg id="Shopping" xmlns="http://www.w3.org/2000/svg" viewBox="0 0 797.56 800.5"><defs><style>.cls-1,.cls-15{fill:#324b5f;}.cls-1,.cls-10,.cls-11,.cls-12,.cls-13,.cls-14,.cls-16,.cls-17,.cls-18,.cls-19,.cls-2,.cls-21,.cls-22,.cls-23,.cls-24,.cls-26,.cls-3,.cls-5,.cls-6,.cls-7,.cls-8,.cls-9{fill-rule:evenodd;}.cls-2{fill:#21323e;}.cls-3{fill:#fff;}.cls-14,.cls-4{fill:#ee6249;}.cls-5{fill:#de9266;}.cls-6{fill:#6bc06f;}.cls-7{fill:#87cc8a;}.cls-8{fill:#efefef;}.cls-9{fill:#f7a271;}.cls-10{fill:#fb9171;}.cls-11{fill:#faa17e;}.cls-12{fill:#f9b38c;}.cls-13{fill:#ffc664;}.cls-16{fill:#826ea1;}.cls-17{fill:#e1e1e1;}.cls-18{fill:#e6e6e6;}.cls-19,.cls-20{fill:#633;}.cls-21{fill:#754747;}.cls-22{fill:#53a892;}.cls-23{fill:#ffb940;}.cls-24{fill:#f3f4f6;}.cls-25,.cls-26{fill:gray;}</style></defs><title>product</title><g id="Shopping-2" data-name="Shopping"><polygon class="cls-1" points="223.15 724.8 429.89 724.8 636.69 724.8 636.69 349.05 429.89 349.05 223.15 349.05 223.15 724.8"/><path class="cls-1" d="M408.89,490.24V448.05l8.35,2.21,49.46,17.49Zm392.71,0V448.05l-6.21,1.41-51.6,18.29Z" transform="translate(-175.33 -145.2)"/><polygon class="cls-2" points="233.57 302.06 429.89 302.06 626.27 302.06 583.62 322.55 636.69 349.05 429.89 349.05 223.15 349.05 276.22 322.55 233.57 302.06"/><path class="cls-3" d="M454.09,554.53a14.32,14.32,0,1,0-14.29-14.36,14.36,14.36,0,0,0,14.29,14.36Z" transform="translate(-175.33 -145.2)"/><path class="cls-3" d="M756.41,554.53a14.32,14.32,0,1,0-14.35-14.36,14.36,14.36,0,0,0,14.35,14.36Z" transform="translate(-175.33 -145.2)"/><path class="cls-4" d="M454.35,531.5C481.05,488.91,567.83,321.29,605.21,321c37.45.27,124.23,167.89,150.93,210.48,4.27,6.74-3.47,10.54-7.41,4.27C724.57,497.38,635.59,330,605.21,329.64c-30.37.33-119.28,167.74-143.45,206.13-3.94,6.27-11.68,2.47-7.41-4.27Z" transform="translate(-175.33 -145.2)"/><path class="cls-5" d="M650.94,775.48H903.4A13.56,13.56,0,0,1,917,789V932.15A13.57,13.57,0,0,1,903.4,945.7H650.94a13.61,13.61,0,0,1-13.55-13.55V789a13.6,13.6,0,0,1,13.55-13.55Z" transform="translate(-175.33 -145.2)"/><path class="cls-6" d="M863.55,694.31l24.56,221.08a3.81,3.81,0,0,1-3.34,4.21L784.44,930.74a3.8,3.8,0,0,1-4.2-3.33L755.68,706.32a3.78,3.78,0,0,1,3.33-4.2L859.34,691a3.87,3.87,0,0,1,4.21,3.34Z" transform="translate(-175.33 -145.2)"/><path class="cls-7" d="M856.67,703.45,879.43,908a3.24,3.24,0,0,1-2.87,3.61l-85.91,9.54a3.28,3.28,0,0,1-3.6-2.87l-22.76-204.6a3.26,3.26,0,0,1,2.87-3.53l86-9.55a3.22,3.22,0,0,1,3.54,2.87Z" transform="translate(-175.33 -145.2)"/><path class="cls-6" d="M853.6,732.49l8.21,73.89,8.21,74a14.41,14.41,0,0,0-1.73.14c-15.29,1.67-26.57,13.42-25.17,26.1a14.88,14.88,0,0,0,.4,2.34l-20.29,2.2a13.22,13.22,0,0,0-.07-2.27c-1.4-12.75-15-21.7-30.31-20l-1.73.2-8.21-73.9-8.28-73.89c.6-.07,1.2-.07,1.74-.14C791.72,739.43,803,727.75,801.6,715c-.13-.8-.27-1.54-.4-2.27l20.23-2.27a14.13,14.13,0,0,0,.13,2.34c1.4,12.68,15,21.63,30.31,20a15.07,15.07,0,0,0,1.73-.26Z" transform="translate(-175.33 -145.2)"/><path class="cls-6" d="M737.65,652.19l106.87,195a3.79,3.79,0,0,1-1.47,5.14L754.47,900.9a3.81,3.81,0,0,1-5.14-1.46L642.46,704.38a3.79,3.79,0,0,1,1.47-5.13l88.58-48.54a3.82,3.82,0,0,1,5.14,1.48Z" transform="translate(-175.33 -145.2)"/><path class="cls-7" d="M734.78,663.2l98.93,180.57a3.28,3.28,0,0,1-1.27,4.4l-75.83,41.52a3.28,3.28,0,0,1-4.41-1.27l-98.92-180.5a3.24,3.24,0,0,1,1.26-4.4l75.83-41.59a3.28,3.28,0,0,1,4.41,1.27Z" transform="translate(-175.33 -145.2)"/><path class="cls-6" d="M743,691.3l35.71,65.22,35.72,65.22c-.47.26-1,.46-1.54.8C799.4,830,793.39,845,799.53,856.25a20.52,20.52,0,0,0,1.27,2L782.91,868c-.27-.66-.6-1.4-.94-2.06-6.2-11.22-22.16-14.36-35.64-6.95-.53.34-1,.61-1.54.94L709.08,794.7,673.3,729.49l1.6-.81c13.49-7.41,19.5-22.56,13.29-33.77A12.52,12.52,0,0,0,687,693l17.82-9.81c.33.73.67,1.4,1,2.13,6.21,11.22,22.16,14.29,35.65,6.88a17,17,0,0,0,1.53-.87Z" transform="translate(-175.33 -145.2)"/><path class="cls-8" d="M706,772.61l5.87,10.68,4.28-2.34c5.34,4.74,12.88,6.14,19.15,2.74a15.82,15.82,0,0,0,7.28-8.48,18.69,18.69,0,0,0-1.2-15.49,4.22,4.22,0,0,1,1.4-5.8,4.3,4.3,0,0,1,5.74,1.86,4.38,4.38,0,0,1-1.47,5.88l6.55,12c6.2-3.41,9.14-10.55,8-17.56l5-2.74-5.87-10.74-4.81,2.67c-5.34-5.28-13.28-6.74-19.76-3.21-8.07,4.41-10.68,15-5.87,23.77a4.08,4.08,0,1,1-7.14,3.87,4.27,4.27,0,0,1,1.53-5.81l-6.61-12c-6.67,3.67-9.61,11.14-8.08,18.55Z" transform="translate(-175.33 -145.2)"/><path class="cls-9" d="M649.8,789.5H904.53A12.44,12.44,0,0,1,917,802v131.3a12.44,12.44,0,0,1-12.42,12.42H649.8a12.48,12.48,0,0,1-12.41-12.42V802A12.48,12.48,0,0,1,649.8,789.5Z" transform="translate(-175.33 -145.2)"/><path class="cls-10" d="M648.34,808.25H906.07a10.94,10.94,0,0,1,10.88,11V934.75a10.9,10.9,0,0,1-10.88,11H648.34a11,11,0,0,1-11-11V819.2a11,11,0,0,1,11-11Z" transform="translate(-175.33 -145.2)"/><path class="cls-11" d="M678,808.25h228a10.94,10.94,0,0,1,10.88,11V934.75a10.9,10.9,0,0,1-10.88,11H678a10.92,10.92,0,0,1-10.95-11V819.2a11,11,0,0,1,10.95-11Z" transform="translate(-175.33 -145.2)"/><path class="cls-12" d="M710.82,808.25H906.07a10.94,10.94,0,0,1,10.88,11V934.75a10.9,10.9,0,0,1-10.88,11H710.82a11,11,0,0,1-11-11V819.2a11,11,0,0,1,11-11Z" transform="translate(-175.33 -145.2)"/><path class="cls-5" d="M736.45,859.12a18.89,18.89,0,1,0-19-18.89,19,19,0,0,0,19,18.89Z" transform="translate(-175.33 -145.2)"/><path class="cls-12" d="M736.45,845.3a5,5,0,1,0-5.07-5.07,5.06,5.06,0,0,0,5.07,5.07Z" transform="translate(-175.33 -145.2)"/><path class="cls-13" d="M272.72,634.5c53.67,0,97.46-43.8,97.46-97.4a97.66,97.66,0,0,0-97.46-97.46c-53.6,0-97.39,43.79-97.39,97.46s43.79,97.4,97.39,97.4Z" transform="translate(-175.33 -145.2)"/><path class="cls-14" d="M236.81,492.31H254a19.46,19.46,0,0,0,37.45,0h44.85v35.38h-27.7v54.14H236.81V527.69H209.17V492.31Z" transform="translate(-175.33 -145.2)"/><polygon class="cls-1" points="61.48 419.88 61.48 396.18 133.31 385.63 133.31 407.39 61.48 419.88"/><rect class="cls-15" x="33.84" y="347.11" width="5.41" height="35.38"/><rect class="cls-15" x="155.6" y="347.11" width="5.41" height="35.38"/><path class="cls-16" d="M912.14,550.32a60.75,60.75,0,1,0-60.74-60.75,60.88,60.88,0,0,0,60.74,60.75Z" transform="translate(-175.33 -145.2)"/><polygon class="cls-3" points="738.55 302.39 747.83 309.13 757.17 315.94 753.64 326.95 750.03 337.9 738.55 337.9 727 337.9 723.4 326.95 719.86 315.94 729.21 309.13 738.55 302.39"/><polygon class="cls-17" points="738.55 302.39 747.83 309.13 757.17 315.94 753.64 326.95 750.03 337.9 738.55 337.9 738.55 302.39"/><path class="cls-3" d="M892.18,485a4.21,4.21,0,1,0-4.2-4.21,4.19,4.19,0,0,0,4.2,4.21Zm43.33,0a4.21,4.21,0,1,1,4.2-4.21,4.19,4.19,0,0,1-4.2,4.21Zm-9.75,45.19A4.21,4.21,0,1,1,930,526a4.19,4.19,0,0,1-4.21,4.2Zm10.55-5.07a4.21,4.21,0,1,1,4.2-4.21,4.19,4.19,0,0,1-4.2,4.21Zm8.94-8.48a4.21,4.21,0,1,1,4.21-4.2,4.19,4.19,0,0,1-4.21,4.2Zm2.47-11.48a4.21,4.21,0,1,1,4.21-4.21,4.23,4.23,0,0,1-4.21,4.21Zm-3-11.35a4.24,4.24,0,1,1,4.2-4.21,4.23,4.23,0,0,1-4.2,4.21Zm-30.84,37.65a4.21,4.21,0,1,0-4.21-4.21,4.23,4.23,0,0,0,4.21,4.21Zm-12-1.27a4.21,4.21,0,1,0-4.2-4.2,4.19,4.19,0,0,0,4.2,4.2Zm-10.55-5.07a4.21,4.21,0,1,0-4.21-4.21,4.19,4.19,0,0,0,4.21,4.21Zm-8.94-8.48a4.21,4.21,0,1,0-4.21-4.2,4.19,4.19,0,0,0,4.21,4.2ZM880,505.13a4.21,4.21,0,1,0-4.21-4.21,4.19,4.19,0,0,0,4.21,4.21Zm3-11.35a4.24,4.24,0,1,0-4.2-4.21,4.22,4.22,0,0,0,4.2,4.21Z" transform="translate(-175.33 -145.2)"/><path class="cls-18" d="M898,480.9a2.81,2.81,0,0,0,0-5.61,2.81,2.81,0,0,0,0,5.61Zm31.71,0a2.81,2.81,0,1,1,2.87-2.81,2.83,2.83,0,0,1-2.87,2.81ZM920,529.63a2.81,2.81,0,0,1,0-5.61,2.81,2.81,0,0,1,0,5.61Zm11.35-3.34a2.81,2.81,0,1,1,2.8-2.8,2.82,2.82,0,0,1-2.8,2.8Zm9.54-6.81a2.84,2.84,0,1,1,2.81-2.8,2.84,2.84,0,0,1-2.81,2.8Zm6.61-10.08a2.84,2.84,0,1,1,2.81-2.87,2.84,2.84,0,0,1-2.81,2.87Zm-.8-11.35a2.81,2.81,0,0,1-2.8-2.8,2.8,2.8,0,1,1,5.6,0,2.81,2.81,0,0,1-2.8,2.8Zm-6.14-10.61a2.77,2.77,0,0,1-2.8-2.81,2.8,2.8,0,1,1,5.6,0,2.78,2.78,0,0,1-2.8,2.81Zm-32.91,42.19a2.81,2.81,0,0,0,0-5.61,2.81,2.81,0,0,0,0,5.61Zm-11.35-3.34a2.81,2.81,0,1,0-2.8-2.8,2.82,2.82,0,0,0,2.8,2.8Zm-9.54-6.81a2.84,2.84,0,1,0-2.81-2.8,2.84,2.84,0,0,0,2.81,2.8Zm-6.61-10.08a2.84,2.84,0,1,0-2.81-2.87,2.84,2.84,0,0,0,2.81,2.87Zm.8-11.35a2.81,2.81,0,0,0,2.8-2.8,2.8,2.8,0,1,0-5.6,0,2.81,2.81,0,0,0,2.8,2.8Zm6.14-10.61a2.78,2.78,0,0,0,2.8-2.81,2.8,2.8,0,1,0-5.6,0,2.78,2.78,0,0,0,2.8,2.81Z" transform="translate(-175.33 -145.2)"/><path class="cls-14" d="M433.46,397.46c69.49,0,126.16-56.68,126.16-126.17S503,145.2,433.46,145.2s-126.1,56.67-126.1,126.09S364,397.46,433.46,397.46Z" transform="translate(-175.33 -145.2)"/><path class="cls-19" d="M364.9,230h48.47c7.54,0,13.55,6.61,13.35,14.62l-.4,15.82c-.6,25.43-20.5,46.26-44.26,46.26H371.25c-17.83,0-32.05-15.55-31.58-34.64l.4-16.09c.34-14.29,11.48-26,24.83-26Z" transform="translate(-175.33 -145.2)"/><path class="cls-19" d="M501.88,230H453.42c-7.54,0-13.55,6.61-13.35,14.62l.4,15.82c.6,25.43,20.49,46.26,44.26,46.26h10.81c17.82,0,32-15.55,31.57-34.64l-.4-16.09c-.33-14.29-11.48-26-24.83-26Z" transform="translate(-175.33 -145.2)"/><path class="cls-19" d="M346.08,253.8H334.13a3.05,3.05,0,0,0-3.07,3h0a3.1,3.1,0,0,0,3.07,3.07h11.95a3,3,0,0,0,3-3.07h0a3,3,0,0,0-3-3Z" transform="translate(-175.33 -145.2)"/><path class="cls-19" d="M520.71,253.8h12a3,3,0,0,1,3,3h0a3,3,0,0,1-3,3.07h-12a3.05,3.05,0,0,1-3-3.07h0a3,3,0,0,1,3-3Z" transform="translate(-175.33 -145.2)"/><rect class="cls-20" x="249.45" y="100.26" width="16.75" height="4"/><path class="cls-19" d="M447.48,262c-12.89-8.75-15.35-8.75-28.31,0v4c13.49-9.21,14.89-9.21,28.31,0v-4Z" transform="translate(-175.33 -145.2)"/><path class="cls-21" d="M367.31,235H409.5c6.54,0,11.74,5.74,11.54,12.75l-.33,13.82c-.47,22.09-17.82,40.25-38.52,40.25h-9.41c-15.49,0-27.83-13.62-27.43-30.17l.33-14c.27-12.42,10-22.63,21.63-22.63Z" transform="translate(-175.33 -145.2)"/><path class="cls-21" d="M499.48,235H457.36c-6.54,0-11.82,5.74-11.62,12.75l.34,13.82c.53,22.09,17.82,40.25,38.51,40.25H494c15.49,0,27.84-13.62,27.44-30.17l-.33-14c-.27-12.42-10-22.63-21.63-22.63Z" transform="translate(-175.33 -145.2)"/><path class="cls-22" d="M776.83,384.64a95.36,95.36,0,1,0-95.32-95.39,95.52,95.52,0,0,0,95.32,95.39Z" transform="translate(-175.33 -145.2)"/><path class="cls-13" d="M767.62,224.7h18.49a7.57,7.57,0,0,1,7.48,7.54V343.72a7.56,7.56,0,0,1-7.48,7.48H767.62a7.57,7.57,0,0,1-7.54-7.48V232.24a7.57,7.57,0,0,1,7.54-7.54Z" transform="translate(-175.33 -145.2)"/><path class="cls-23" d="M776.83,332.51A43.93,43.93,0,1,0,733,288.58a44,44,0,0,0,43.85,43.93Z" transform="translate(-175.33 -145.2)"/><path class="cls-24" d="M776.83,323a34.38,34.38,0,1,0-34.37-34.38A34.42,34.42,0,0,0,776.83,323Z" transform="translate(-175.33 -145.2)"/><rect class="cls-25" x="598.77" y="117.15" width="5.47" height="28.97"/><polygon class="cls-26" points="601.24 141.51 604.24 146.06 584.88 158.67 581.88 154.13 601.24 141.51"/><path class="cls-13" d="M250.29,738.5H491.13a23.36,23.36,0,0,1,23.3,23.29v51.8a23.36,23.36,0,0,1-23.3,23.3H250.29a23.36,23.36,0,0,1-23.3-23.3v-51.8a23.36,23.36,0,0,1,23.3-23.29Z" transform="translate(-175.33 -145.2)"/><path class="cls-1" d="M280.86,768.8h-10l-6.94,43.46h6.27l1.2-7.88h8.35l1.2,7.88h6.94Zm-5.34,7.68,3.34,22h-6.61ZM291,812.26h10.81c6.81,0,10.22-3.74,10.22-10.75v-22c0-7-3.41-10.75-10.22-10.75H291ZM301.69,775c2.2,0,3.47,1.07,3.47,4.2v22.63c0,3.14-1.27,4.21-3.47,4.21h-3.87V775Zm14.69,37.25h10.81c6.81,0,10.21-3.74,10.21-10.75v-22c0-7-3.4-10.75-10.21-10.75H316.38ZM327.05,775c2.21,0,3.48,1.07,3.48,4.2v22.63c0,3.14-1.27,4.21-3.48,4.21h-3.87V775Zm22.3,0h7.14v37.25h6.88V775h7.14V768.8H349.35Zm30.44,3.81c0-3.14,1.34-4.34,3.54-4.34s3.54,1.2,3.54,4.34v23.49c0,3.07-1.41,4.27-3.54,4.27s-3.54-1.2-3.54-4.27Zm-6.88,23c0,6.95,3.68,10.95,10.42,10.95s10.34-4,10.34-10.95V779.21c0-6.94-3.67-10.94-10.34-10.94s-10.42,4-10.42,10.94Zm45.13-33H407.76v43.46h10.75c6.8,0,10.34-3.61,10.34-10.28v-3.54c0-4.61-1.4-7.88-5.07-9.35,3.07-1.4,4.41-4.27,4.41-8.74v-1.53c0-6.75-3.08-10-10.15-10Zm-.4,23.9c3.07,0,4.4,1.27,4.4,5.27v3.81c0,3.2-1.26,4.27-3.53,4.27h-3.94V792.7Zm.27-17.69c2.4,0,3.47,1.33,3.47,4.47v2.4c0,3.48-1.6,4.61-4.14,4.61h-2.67V775Zm30.23-6.21h-10l-6.94,43.46h6.27l1.21-7.88H447l1.2,7.88h6.88Zm-5.34,7.68,3.28,22h-6.55Zm25.64,17.76h3.13v8.07c0,3.07-1.33,4.21-3.53,4.21s-3.54-1.14-3.54-4.21V778.82c0-3.14,1.33-4.34,3.54-4.34s3.53,1.2,3.53,4.34v4.6h6.48v-4.21c0-6.94-3.47-10.94-10.21-10.94s-10.22,4-10.22,10.94v22.63c0,6.95,3.54,10.95,10.22,10.95s10.21-4,10.21-10.95V788h-9.61Z" transform="translate(-175.33 -145.2)"/><path class="cls-14" d="M542.4,886.49a50,50,0,1,0-50.06-50,50.1,50.1,0,0,0,50.06,50Z" transform="translate(-175.33 -145.2)"/><polygon class="cls-3" points="339.3 680.61 365.34 725 426.75 624.34 366.81 692.96 339.3 680.61"/></g></svg>